<svg id="svg" version="1.1" xmlns="http://www.w3.org/2000/svg" style="display: block;" viewBox="0 0 466 393"><path d="M0 0 C153.78 0 307.56 0 466 0 C466 129.69 466 259.38 466 393 C312.22 393 158.44 393 0 393 C0 263.31 0 133.62 0 0 Z " transform="translate(0,0)" style="fill: #16171F;"/><path d="M0 0 C22.9546871 19.0661882 38.71895452 47.22554467 41.82666016 77.1171875 C43.94989216 111.45962265 37.4598832 147.01696231 18.07275391 176.09765625 C8.12168973 173.01000336 1.83096292 160.85298889 -2.80419922 152.09277344 C-6.56735302 144.4486569 -8.52770629 136.37443973 -10.60302734 128.1484375 C-12.6783027 119.99310124 -15.81136893 112.83625319 -20.17724609 105.66015625 C-23.49396923 100.20407489 -25.8876303 94.56411328 -28.30224609 88.66015625 C-31.9372915 79.87204071 -36.13627535 72.67520307 -41.92724609 65.09765625 C-42.65427734 64.04320313 -43.38130859 62.98875 -44.13037109 61.90234375 C-44.82646484 60.89429687 -45.52255859 59.88625 -46.23974609 58.84765625 C-46.85462891 57.955625 -47.46951172 57.06359375 -48.10302734 56.14453125 C-49.76351921 53.99495755 -49.76351921 53.99495755 -52.03271484 53.17578125 C-52.65791016 53.15 -53.28310547 53.12421875 -53.92724609 53.09765625 C-58.36426266 57.53467282 -57.24257819 65.99200328 -57.48974609 71.97265625 C-57.53292969 72.9471875 -57.57611328 73.92171875 -57.62060547 74.92578125 C-57.72606884 77.31628427 -57.82818785 79.70688069 -57.92724609 82.09765625 C-59.00103516 82.57074219 -60.07482422 83.04382813 -61.18115234 83.53125 C-74.6608703 89.69765542 -80.07715655 96.40755303 -86.05615234 109.9609375 C-89.60062925 115.90293115 -95.20363439 117.79610539 -101.48974609 119.97265625 C-108.84896233 122.61737459 -115.88093206 125.6951553 -122.92724609 129.09765625 C-122.76992577 138.22223505 -119.13217347 147.7824598 -112.69287109 154.390625 C-106.84202655 158.00195137 -100.24327244 158.36806849 -93.55224609 158.97265625 C-83.59260363 160.05130228 -75.78549322 162.01479266 -68.84521484 169.703125 C-61.59299684 178.75731978 -57.3108244 188.50424019 -53.05224609 199.22265625 C-52.57553467 200.41407227 -52.09882324 201.60548828 -51.60766602 202.83300781 C-47.56731015 213.29688405 -45.56845142 223.08276488 -45.48974609 234.28515625 C-45.456875 235.12240234 -45.42400391 235.95964844 -45.39013672 236.82226562 C-45.32766216 244.10907082 -47.65408643 248.51721423 -52.51879883 253.83862305 C-54.2534921 255.56829187 -56.03930646 257.21420538 -57.86474609 258.84765625 C-58.51064697 259.43820801 -59.15654785 260.02875977 -59.82202148 260.63720703 C-66.39287583 266.60752086 -73.13414929 272.38266264 -79.92724609 278.09765625 C-81.79210804 275.30036332 -83.42997084 272.47797923 -85.05224609 269.53515625 C-85.59107422 268.56449219 -86.12990234 267.59382813 -86.68505859 266.59375 C-87.92724609 264.09765625 -87.92724609 264.09765625 -87.92724609 262.09765625 C-86.42333984 260.6875 -86.42333984 260.6875 -84.36474609 259.03515625 C-73.72966274 249.89797196 -65.15792228 236.30637217 -63.92724609 222.09765625 C-63.84603516 221.16566406 -63.76482422 220.23367188 -63.68115234 219.2734375 C-63.15116372 206.98733761 -67.15607347 195.6177229 -74.92724609 186.09765625 C-86.26343336 175.48091826 -98.59419442 172.32187944 -113.81005859 172.8203125 C-126.35568638 173.51600884 -136.4128894 178.16580702 -145.23974609 187.16015625 C-153.11184461 196.76898578 -155.66846081 206.41074435 -154.94287109 218.50390625 C-154.92652236 222.26411399 -155.33594436 224.70027586 -156.92724609 228.09765625 C-158.87255859 229.78515625 -158.87255859 229.78515625 -161.05224609 231.09765625 C-164.42174848 233.3730594 -164.42174848 233.3730594 -165.73974609 237.22265625 C-165.17881646 240.31258847 -165.17881646 240.31258847 -162.36474609 242.03515625 C-161.56037109 242.71578125 -160.75599609 243.39640625 -159.92724609 244.09765625 C-160.11474609 247.84765625 -160.11474609 247.84765625 -160.92724609 251.09765625 C-158.28724609 252.74765625 -155.64724609 254.39765625 -152.92724609 256.09765625 C-153.92724609 259.09765625 -153.92724609 259.09765625 -156.92724609 261.09765625 C-156.84848817 263.77542554 -156.35759947 265.5696153 -154.65380859 267.66015625 C-149.66514694 272.34434559 -145.69831276 272.99306254 -138.98974609 272.97265625 C-138.11511719 272.99328125 -137.24048828 273.01390625 -136.33935547 273.03515625 C-134.20239457 273.08186578 -132.06471315 273.09338559 -129.92724609 273.09765625 C-130.51682791 276.42652587 -130.66862912 276.91401169 -133.59521484 278.9921875 C-134.76017146 279.6463697 -135.93406383 280.28480222 -137.11474609 280.91015625 C-137.73534912 281.24837402 -138.35595215 281.5865918 -138.99536133 281.93505859 C-140.30270612 282.64229181 -141.61377098 283.34268592 -142.92822266 284.03662109 C-144.89735444 285.08179045 -146.84572794 286.15951804 -148.79443359 287.2421875 C-150.02513662 287.90433229 -151.25687303 288.56456077 -152.48974609 289.22265625 C-153.60478516 289.82335937 -154.71982422 290.4240625 -155.86865234 291.04296875 C-158.92724609 292.09765625 -158.92724609 292.09765625 -161.29052734 291.62109375 C-165.1296277 289.40294688 -168.85281119 287.04079841 -172.55224609 284.59765625 C-173.31537109 284.09878906 -174.07849609 283.59992188 -174.86474609 283.0859375 C-177.89465838 281.10320542 -180.91439065 279.10622655 -183.92724609 277.09765625 C-183.42869601 273.1923473 -182.79044804 269.425204 -181.86474609 265.59765625 C-180.95649185 261.63929446 -180.67388402 258.15144942 -180.92724609 254.09765625 C-181.97428175 252.84088786 -181.97428175 252.84088786 -184.30224609 252.84765625 C-186.97902239 252.8546343 -186.97902239 252.8546343 -188.73974609 254.59765625 C-189.13162109 255.09265625 -189.52349609 255.58765625 -189.92724609 256.09765625 C-193.94170599 254.75950295 -195.28491052 252.33451733 -197.92724609 249.09765625 C-201.96345294 246.40685169 -205.18730373 246.43123202 -209.92724609 247.09765625 C-213.36122547 248.99730442 -214.58675285 250.36802786 -216.23974609 253.91015625 C-218.14624282 262.74936834 -215.67829631 268.59706208 -210.92724609 276.09765625 C-209.06763192 278.13481128 -209.06763192 278.13481128 -207.05224609 279.91015625 C-203.3542013 283.27839439 -201.20343691 286.98332365 -198.98974609 291.41015625 C-191.65563832 305.9471488 -179.78207342 319.80000962 -163.92724609 325.09765625 C-159.24770503 325.80524814 -154.65718737 326.08366234 -149.92724609 326.09765625 C-154.73994998 331.27546181 -160.44624104 334.4760482 -167.42724609 335.72265625 C-175.62707278 334.25840149 -183.00489582 328.98703812 -189.92724609 324.53515625 C-190.7404834 324.01630859 -191.5537207 323.49746094 -192.39160156 322.96289062 C-211.99425059 310.406896 -231.59306731 297.49667763 -249.67681885 282.79948425 C-251.90871327 281.03567552 -251.90871327 281.03567552 -254.47563171 279.64459229 C-258.953719 276.82123462 -261.52454427 274.71530524 -262.83256531 269.46099854 C-263.28105612 264.89365284 -263.15954932 260.33524598 -263.04443359 255.75390625 C-263.03591983 254.05816099 -263.03127472 252.36239233 -263.03030396 250.66662598 C-263.01800845 247.12188136 -262.97280628 243.57968249 -262.90136719 240.03564453 C-262.81081906 235.50956063 -262.78131354 230.98577604 -262.77389336 226.45886993 C-262.76500335 222.96007943 -262.73433936 219.4617638 -262.69614029 215.96318054 C-262.67847543 214.29517997 -262.66496762 212.62712969 -262.65581894 210.95906067 C-262.51724851 193.20088679 -262.51724851 193.20088679 -256.07568359 186.0390625 C-255.49044922 185.58402344 -254.90521484 185.12898437 -254.30224609 184.66015625 C-253.71185547 184.18707031 -253.12146484 183.71398437 -252.51318359 183.2265625 C-247.88498713 179.93210738 -242.37902958 180.3557781 -236.92724609 181.09765625 C-233.16650485 182.98092421 -229.83713815 185.27787214 -227.92724609 189.09765625 C-227.8003205 190.53332572 -227.69938034 191.97137413 -227.61474609 193.41015625 C-227.15742353 197.70621668 -226.3568074 200.22424002 -222.92724609 203.09765625 C-219.92724609 203.84765625 -219.92724609 203.84765625 -216.92724609 203.09765625 C-213.42037348 200.34902636 -212.20110054 198.05820512 -211.58349609 193.63671875 C-211.10413594 184.69665181 -213.57566063 178.25218227 -218.92724609 171.09765625 C-227.27441549 163.11576007 -235.61910997 161.61443751 -246.82177734 161.859375 C-256.39042969 162.59357348 -263.31433643 168.17919061 -269.75537109 175.046875 C-277.44936028 184.62550296 -278.52944086 194.31340433 -278.53662109 206.29296875 C-278.55163207 207.73601103 -278.56836525 209.17903631 -278.58673096 210.62203979 C-278.63009042 214.38664619 -278.6503329 218.151021 -278.66546631 221.91583252 C-278.68515193 225.77084879 -278.72710827 229.62561901 -278.76708984 233.48046875 C-278.84205079 241.01946458 -278.89254739 248.55835605 -278.92724609 256.09765625 C-283.11982435 254.05599223 -286.28473034 251.44597398 -289.80224609 248.41015625 C-290.40166016 247.90548828 -291.00107422 247.40082031 -291.61865234 246.88085938 C-292.82748755 245.84377841 -294.01714695 244.78395445 -295.18725586 243.70336914 C-296.88937672 242.08919124 -296.88937672 242.08919124 -298.6809082 240.72436523 C-302.32961181 237.41984822 -303.26541779 234.49138492 -303.61450195 229.58036804 C-303.75801434 225.89708761 -303.75989829 222.22063772 -303.73974609 218.53515625 C-303.75406149 216.30947534 -303.77673537 214.08397565 -303.79956055 211.85836792 C-303.8143592 210.3915325 -303.82673314 208.9246706 -303.83666992 207.45779419 C-303.92395253 197.11291442 -304.62943851 186.97514924 -306.80224609 176.84765625 C-306.98368164 175.9855957 -307.16511719 175.12353516 -307.35205078 174.23535156 C-307.86257593 171.85259966 -308.39047908 169.47461238 -308.92724609 167.09765625 C-309.14123047 166.12828125 -309.35521484 165.15890625 -309.57568359 164.16015625 C-314.81659114 144.01329087 -329.40297841 126.84694084 -341.77319336 110.65307617 C-342.87369215 109.16983569 -343.90276124 107.63438352 -344.92724609 106.09765625 C-353.25194631 109.97888903 -358.90144856 117.21314502 -364.63037109 124.1640625 C-365.42701172 125.12119141 -365.42701172 125.12119141 -366.23974609 126.09765625 C-366.71025391 126.67515625 -367.18076172 127.25265625 -367.66552734 127.84765625 C-368.92724609 129.09765625 -368.92724609 129.09765625 -370.92724609 129.09765625 C-371.39398068 127.37073829 -371.84996483 125.64091575 -372.30224609 123.91015625 C-372.55748047 122.94722656 -372.81271484 121.98429688 -373.07568359 120.9921875 C-375.27976498 110.91205381 -376.29185989 101.09922016 -376.23974609 90.78515625 C-376.23410645 89.60453613 -376.2284668 88.42391602 -376.22265625 87.20751953 C-375.85202237 60.45949619 -365.60054961 31.6866384 -346.92724609 12.09765625 C-346.16025391 11.25332031 -345.39326172 10.40898438 -344.60302734 9.5390625 C-329.37063645 -6.57636555 -306.93690515 -18.72818921 -284.5793457 -20.10913086 C-238.5765529 -21.34189172 -206.27047128 -3.22019559 -173.14599609 27.125 C-170.80531961 29.2060592 -168.38813833 31.16100338 -165.92724609 33.09765625 C-165.08162109 32.24042969 -164.23599609 31.38320312 -163.36474609 30.5 C-151.09584639 18.10964399 -151.09584639 18.10964399 -144.92724609 13.09765625 C-143.53505859 11.96457031 -143.53505859 11.96457031 -142.11474609 10.80859375 C-101.04164724 -21.9791251 -44.01500398 -35.62937588 0 0 Z " transform="translate(400.92724609375,43.90234375)" style="fill: #285FCE;"/><path d="M0 0 C1.46093964 1.07296116 2.89782412 2.17923814 4.3125 3.3125 C5.13492188 3.96089844 5.95734375 4.60929687 6.8046875 5.27734375 C17.35062116 14.14041565 24.29542382 24.57530753 25.6105957 38.45947266 C25.74728504 41.70799946 25.77138913 44.93635158 25.75 48.1875 C25.76998047 49.28835937 25.78996094 50.38921875 25.81054688 51.5234375 C25.80566058 59.57605945 25.80566058 59.57605945 23.26953125 63.36328125 C22.62371094 64.00652344 21.97789062 64.64976563 21.3125 65.3125 C21.4888982 68.42353004 21.4888982 68.42353004 21.93359375 70.65625 C22.45450154 74.30797471 22.56081956 77.94326464 22.625 81.625 C22.66898926 82.68424683 22.66898926 82.68424683 22.71386719 83.76489258 C22.75291284 87.02090973 22.76242919 88.81944034 20.51953125 91.27734375 C17.36948069 92.75480109 14.74208703 92.56654348 11.3125 92.3125 C10.6525 91.9825 9.9925 91.6525 9.3125 91.3125 C9.415625 92.3025 9.51875 93.2925 9.625 94.3125 C9.63454902 98.98196969 7.57490864 103.00716493 4.3125 106.3125 C2.9925 106.3125 1.6725 106.3125 0.3125 106.3125 C0.209375 107.529375 0.10625 108.74625 0 110 C-0.6145923 114.7651951 -1.90772364 117.83922133 -5.68359375 120.96484375 C-10.01997303 122.91029349 -13.82986436 122.33703778 -18.5 122.0625 C-26.66696459 121.64660783 -26.66696459 121.64660783 -33.625 125.4375 C-35.29688408 127.33916034 -35.29688408 127.33916034 -36.6875 129.3125 C-37.16960937 129.82554687 -37.65171875 130.33859375 -38.1484375 130.8671875 C-44.03719142 137.1644099 -45.20561024 144.05390652 -45.6875 152.3125 C-46.3475 152.3125 -47.0075 152.3125 -47.6875 152.3125 C-48.05875 151.11625 -48.43 149.92 -48.8125 148.6875 C-55.09979854 130.05846729 -65.14887921 114.8910452 -76.421875 98.9609375 C-86.6875 84.42090851 -86.6875 84.42090851 -86.6875 81.3125 C-85.33481864 80.19558009 -83.92840443 79.14329157 -82.5 78.125 C-76.47114532 73.62762451 -76.47114532 73.62762451 -72.6875 67.3125 C-72.51238658 62.9159024 -73.03560674 58.68097352 -74.20336914 54.43823242 C-77.01248477 42.10390574 -75.44874093 27.52112044 -69.14453125 16.65234375 C-61.71715524 5.38380761 -52.28150701 -3.19422778 -38.84716797 -6.30810547 C-25.64691259 -8.62702892 -11.46521078 -7.15827943 0 0 Z " transform="translate(150.6875,59.6875)" style="fill: #191A22;"/><path d="M0 0 C9.22015953 0 18.41240325 0.00056961 27.625 0.21875 C28.62337891 0.24094604 29.62175781 0.26314209 30.65039062 0.28601074 C33.76696739 0.35567338 36.88348152 0.42778208 40 0.5 C42.14322548 0.54834099 44.28645463 0.59651918 46.4296875 0.64453125 C51.6198359 0.76114768 56.80992983 0.87995409 62 1 C62.11626419 9.58019155 62.20490109 18.16004957 62.25906086 26.74083614 C62.28506565 30.72602765 62.32029385 34.71067705 62.37719727 38.69555664 C62.43184687 42.54706144 62.46148899 46.39804751 62.47438622 50.24991035 C62.48356755 51.71345743 62.50149602 53.1769787 62.52865028 54.64030266 C62.68200239 63.25320182 62.26181056 69.8759485 57 77 C56.401875 77.928125 55.80375 78.85625 55.1875 79.8125 C50.02025832 84.97974168 42.38932801 87.06313015 35.625 89.4375 C28.83850761 91.87126296 22.31214665 94.47882822 16 98 C15.41696809 104.29674461 16.63745657 107.88488375 19.6171875 113.41015625 C21.00200299 116.00375136 22.22521696 118.60689166 23.375 121.3125 C23.71273437 122.09238281 24.05046875 122.87226563 24.3984375 123.67578125 C25.11521612 126.44515317 24.74489541 128.26710449 24 131 C16.48564908 132.99682052 9.40722669 133.33970169 1.65234375 133.4140625 C-0.01483704 133.44052856 -0.01483704 133.44052856 -1.71569824 133.4675293 C-5.83115701 133.5301592 -9.94684873 133.57664663 -14.0625 133.625 C-23.281875 133.74875 -32.50125 133.8725 -42 134 C-42 102.32 -42 70.64 -42 38 C-28.14 38 -14.28 38 0 38 C0 25.46 0 12.92 0 0 Z " transform="translate(251,70)" style="fill: #191A22;"/><path d="M0 0 C4.29 0 8.58 0 13 0 C13 5.28 13 10.56 13 16 C8.71 16 4.42 16 0 16 C0 10.72 0 5.44 0 0 Z " transform="translate(287,118)" style="fill: #2861CE;"/><path d="M0 0 C4.29 0 8.58 0 13 0 C13 5.28 13 10.56 13 16 C8.71 16 4.42 16 0 16 C0 10.72 0 5.44 0 0 Z " transform="translate(287,88)" style="fill: #2862D2;"/><path d="M0 0 C3.96 0 7.92 0 12 0 C12 5.28 12 10.56 12 16 C8.04 16 4.08 16 0 16 C0 10.72 0 5.44 0 0 Z " transform="translate(266,118)" style="fill: #2861D0;"/><path d="M0 0 C3.96 0 7.92 0 12 0 C12 5.28 12 10.56 12 16 C8.04 16 4.08 16 0 16 C0 10.72 0 5.44 0 0 Z " transform="translate(266,88)" style="fill: #2861D3;"/><path d="M0 0 C3.96 0 7.92 0 12 0 C12 4.95 12 9.9 12 15 C8.04 15 4.08 15 0 15 C0 10.05 0 5.1 0 0 Z " transform="translate(224,155)" style="fill: #2963D5;"/><path d="M0 0 C3.96 0 7.92 0 12 0 C12 4.95 12 9.9 12 15 C8.04 15 4.08 15 0 15 C0 10.05 0 5.1 0 0 Z " transform="translate(224,126)" style="fill: #2862D4;"/><path d="M0 0 C3.0625 0.1875 3.0625 0.1875 5.0625 2.1875 C4.6875 5.8125 4.6875 5.8125 4.0625 9.1875 C1.7525 9.5175 -0.5575 9.8475 -2.9375 10.1875 C-4.9375 7.1875 -4.9375 7.1875 -4.625 4.0625 C-3.71016322 0.23681893 -3.71016322 0.23681893 0 0 Z " transform="translate(260.9375,264.8125)" style="fill: #2962CC;"/><path d="M0 0 C0.33 0 0.66 0 1 0 C1 5.28 1 10.56 1 16 C-2.96 16 -6.92 16 -11 16 C-10.67 15.34 -10.34 14.68 -10 14 C-7.03 14 -4.06 14 -1 14 C-0.67 9.38 -0.34 4.76 0 0 Z " transform="translate(277,88)" style="fill: #2659B7;"/><path d="M0 0 C7.425 0.99 7.425 0.99 15 2 C15 2.33 15 2.66 15 3 C12.87631556 3.22134176 10.75095976 3.42670007 8.625 3.625 C7.44164062 3.74101562 6.25828125 3.85703125 5.0390625 3.9765625 C4.03617188 3.98429687 3.03328125 3.99203125 2 4 C0 2 0 2 0 0 Z " transform="translate(250,313)" style="fill: #191E2E;"/><path d="M0 0 C0.66 0 1.32 0 2 0 C2 1.32 2 2.64 2 4 C2.66 4.33 3.32 4.66 4 5 C3.01 6.32 2.02 7.64 1 9 C0.67 6.03 0.34 3.06 0 0 Z " transform="translate(277,173)" style="fill: #1B233D;"/><path d="M0 0 C0.66 0 1.32 0 2 0 C0.60667426 3.36720387 -0.9789286 4.9859524 -4 7 C-4.66 6.67 -5.32 6.34 -6 6 C-4.625 4.5 -4.625 4.5 -3 3 C-2.34 3 -1.68 3 -1 3 C-0.67 2.01 -0.34 1.02 0 0 Z " transform="translate(45,157)" style="fill: #191C2F;"/></svg>