<svg id="svg" version="1.1" xmlns="http://www.w3.org/2000/svg" style="display: block;" viewBox="0 0 531 445"><path d="M0 0 C175.23 0 350.46 0 531 0 C531 146.85 531 293.7 531 445 C355.77 445 180.54 445 0 445 C0 298.15 0 151.3 0 0 Z " transform="translate(0,0)" style="fill: #FEFEFE;"/><path d="M0 0 C2.85182337 2.53293423 5.62982276 5.13187507 8.36962891 7.78515625 C11.04652838 10.40568155 11.04652838 10.40568155 13.77978516 12.5 C16.76808258 14.92428102 18.99265371 17.71898866 21.39306641 20.70703125 C23.316917 22.58784268 24.51303887 23.02905128 27.13916016 23.4140625 C27.59806641 22.85976562 28.05697266 22.30546875 28.52978516 21.734375 C29.14337891 21.00992188 29.75697266 20.28546875 30.38916016 19.5390625 C30.99244141 18.81976563 31.59572266 18.10046875 32.21728516 17.359375 C34.13916016 15.4140625 34.13916016 15.4140625 36.24853516 14.40625 C38.67470149 13.13301395 39.03893802 11.87447487 40.13916016 9.4140625 C59.8594837 -14.97846078 95.81216136 -29.78999387 126.09228516 -33.1171875 C152.65754588 -35.69747772 178.52053672 -29.57407726 199.38549805 -12.45849609 C202.02169761 -10.22151313 204.58395113 -7.91527169 207.13916016 -5.5859375 C208.13689453 -4.71195313 208.13689453 -4.71195313 209.15478516 -3.8203125 C229.03346152 14.57210768 239.84350928 43.97592585 241.30761719 70.46142578 C242.52041061 103.7853355 235.12210558 134.71672847 218.32666016 163.6640625 C217.43043945 165.22833984 217.43043945 165.22833984 216.51611328 166.82421875 C215.06335085 169.35783642 213.60435484 171.88762117 212.13916016 174.4140625 C211.14916016 174.4140625 210.15916016 174.4140625 209.13916016 174.4140625 C205.36423581 170.43471987 202.25488188 165.9199108 199.13916016 161.4140625 C198.73826172 160.83624023 198.33736328 160.25841797 197.92431641 159.66308594 C191.46715548 150.05887436 188.35432435 140.02785099 185.30761719 128.9296875 C182.13810083 117.6853391 177.47667646 107.39999877 172.35107422 96.9309082 C171.22946178 94.60159662 170.17237539 92.25628477 169.13916016 89.88671875 C160.04197124 68.10860385 160.04197124 68.10860385 144.13916016 51.4140625 C141.44070126 51.63604063 141.44070126 51.63604063 139.13916016 52.4140625 C137.85284493 56.87433439 137.01160838 60.97147124 136.78759766 65.61328125 C136.73990234 66.51240234 136.69220703 67.41152344 136.64306641 68.33789062 C136.55662717 70.19109556 136.49439711 72.0455773 136.45556641 73.90039062 C136.04420163 80.54441014 136.04420163 80.54441014 133.40966797 83.07592773 C131.36794614 84.35022908 129.3223523 85.40525677 127.13916016 86.4140625 C118.25569945 92.13587487 111.99263803 99.58769393 108.13916016 109.4140625 C102.78586515 118.0616929 91.29876429 121.30219823 82.13134766 124.4453125 C81.14392578 124.785625 80.15650391 125.1259375 79.13916016 125.4765625 C78.23166016 125.77691406 77.32416016 126.07726562 76.38916016 126.38671875 C73.82119145 127.32065104 73.82119145 127.32065104 72.13916016 130.4140625 C71.05000583 138.03814277 73.97674091 143.13097942 78.13916016 149.4140625 C83.07590825 155.19367003 87.5324397 157.64726185 95.07666016 158.4765625 C96.41002524 158.63645422 97.74335783 158.79661706 99.07666016 158.95703125 C100.43067153 159.11074908 101.78483778 159.26310926 103.13916016 159.4140625 C122.23301992 161.54647102 122.23301992 161.54647102 128.98291016 169.8203125 C133.28389762 175.31970832 136.33551247 181.09881352 139.26416016 187.4140625 C140.03336792 189.04794922 140.03336792 189.04794922 140.81811523 190.71484375 C143.80337203 197.17601947 146.55146461 203.66843482 148.82666016 210.4140625 C149.05820801 211.09984375 149.28975586 211.785625 149.52832031 212.4921875 C152.45990959 221.83648463 154.42943914 234.92442232 151.13916016 244.2890625 C148.93870653 247.7272713 146.64147074 249.90898434 143.49853516 252.47265625 C140.8588649 254.6447028 138.3860365 256.95455528 135.88916016 259.2890625 C130.26224117 264.43457607 124.31378755 268.95281339 118.13916016 273.4140625 C114.40170052 271.69876524 112.39379136 269.92126659 110.13916016 266.4140625 C110.32923441 263.60767206 110.87452018 262.64805995 112.99462891 260.7734375 C113.76419922 260.24234375 114.53376953 259.71125 115.32666016 259.1640625 C124.1938466 252.51718582 128.83064718 243.80601531 131.76025391 233.15625 C133.2102582 222.66240448 133.66437642 210.15787494 129.13916016 200.4140625 C128.79884766 199.66382813 128.45853516 198.91359375 128.10791016 198.140625 C121.291879 184.64672548 110.98998476 178.29414578 97.13916016 173.4140625 C86.28030936 169.97656466 74.49031773 172.77174056 64.13916016 176.4140625 C63.44177734 176.6409375 62.74439453 176.8678125 62.02587891 177.1015625 C52.14054185 180.73754854 43.97442884 189.23399116 39.32666016 198.4765625 C36.5330425 205.41640383 36.55479711 212.46104205 36.59106445 219.84790039 C36.5449973 226.85440699 36.5449973 226.85440699 34.31494141 229.9296875 C33.59693359 230.41953125 32.87892578 230.909375 32.13916016 231.4140625 C31.06666016 232.1565625 29.99416016 232.8990625 28.88916016 233.6640625 C27.52791016 234.5303125 27.52791016 234.5303125 26.13916016 235.4140625 C26.32045831 238.85199589 26.32045831 238.85199589 27.13916016 242.4140625 C29.07513047 243.92700538 29.07513047 243.92700538 31.13916016 244.4140625 C30.98447266 246.2703125 30.98447266 246.2703125 30.82666016 248.1640625 C30.82049019 251.65009188 30.89403496 252.1485102 33.38916016 254.8515625 C35.73925135 256.18684159 37.48877958 257.02141353 40.13916016 257.4140625 C39.80916016 257.9503125 39.47916016 258.4865625 39.13916016 259.0390625 C37.79680796 262.22714898 37.52079674 263.97871019 38.13916016 267.4140625 C42.5585994 272.93182393 47.90385963 274.88620246 54.80322266 275.74609375 C57.24714501 276.00425456 59.68891108 276.22671951 62.13916016 276.4140625 C58.44212965 280.67675888 53.81345992 283.20345727 49.01416016 286.0390625 C47.38503754 287.00786781 45.75736256 287.9791128 44.13134766 288.953125 C43.41317871 289.37803223 42.69500977 289.80293945 41.95507812 290.24072266 C39.99801265 291.41510227 39.99801265 291.41510227 38.13916016 293.4140625 C33.8701682 293.1313958 31.30940669 291.38599156 27.95166016 288.8515625 C27.00033203 288.13613281 26.04900391 287.42070312 25.06884766 286.68359375 C13.26342051 277.53832286 13.26342051 277.53832286 10.13916016 274.4140625 C9.87706336 271.39994932 9.71384994 269.22165545 11.14306641 266.5078125 C12.29419497 264.08818541 12.37565373 262.45253109 12.32666016 259.7890625 C12.32021484 259.01304687 12.31376953 258.23703125 12.30712891 257.4375 C12.25966648 255.3453357 12.25966648 255.3453357 11.13916016 253.4140625 C7.42316825 253.21319807 6.3670757 253.2621188 3.13916016 255.4140625 C2.68025391 254.85976563 2.22134766 254.30546875 1.74853516 253.734375 C1.13494141 253.00992187 0.52134766 252.28546875 -0.11083984 251.5390625 C-0.71412109 250.81976563 -1.31740234 250.10046875 -1.93896484 249.359375 C-4.64649417 246.61882702 -6.82794293 245.57838701 -10.61083984 244.9765625 C-15.06167944 245.57571398 -18.53724792 247.38240771 -21.86083984 250.4140625 C-24.51848588 255.57454024 -24.62601395 260.7390212 -23.86083984 266.4140625 C-21.56818963 272.39132912 -17.02887454 276.78372045 -11.86083984 280.4140625 C-11.16732422 280.70410156 -10.47380859 280.99414062 -9.75927734 281.29296875 C-7.1937055 282.80802866 -6.93974107 284.17062465 -6.04833984 286.9765625 C-1.3881291 299.54829381 9.7711704 309.74406851 21.13916016 316.4140625 C21.89712891 316.88972656 22.65509766 317.36539062 23.43603516 317.85546875 C30.44100995 321.87302783 37.16273556 322.28763502 45.13916016 322.4140625 C42.05556507 325.92298105 38.68702751 328.58864481 34.82666016 331.2265625 C33.94365234 331.83113281 33.06064453 332.43570312 32.15087891 333.05859375 C28.34278131 334.77248463 25.19972417 335.19399777 21.13916016 334.4140625 C17.91137328 333.10579369 15.02903805 331.37645633 12.07666016 329.5390625 C11.24666504 329.03947021 10.41666992 328.53987793 9.56152344 328.02514648 C1.92861718 323.38957364 -5.52640261 318.50653202 -12.86083984 313.4140625 C-13.53324707 312.94887207 -14.2056543 312.48368164 -14.8984375 312.00439453 C-28.69545203 302.43441435 -42.24992802 292.48148585 -55.39212036 282.02682495 C-57.64186768 280.27844501 -59.80525267 278.84938121 -62.27146912 277.37478638 C-70.77134306 272.16874597 -70.77134306 272.16874597 -72.59282303 267.56331635 C-73.73121967 262.31118301 -73.45590449 256.99399799 -73.27099609 251.65625 C-73.25686959 249.94096271 -73.24796395 248.22562531 -73.2440033 246.51028442 C-73.22264933 242.92964409 -73.15921308 239.35327859 -73.0612793 235.77392578 C-72.93666423 231.2030083 -72.88600705 226.63525131 -72.86292362 222.06280327 C-72.83739921 217.6768786 -72.77400092 213.29172772 -72.70849609 208.90625 C-72.69945818 208.07903316 -72.69042027 207.25181633 -72.68110847 206.39953232 C-72.43771558 188.71791402 -72.43771558 188.71791402 -66.11474609 181.390625 C-61.67218021 177.84067628 -58.29417666 175.73544661 -52.54833984 174.9765625 C-47.67833623 175.55435954 -44.58251033 177.27206529 -40.86083984 180.4140625 C-37.1472856 185.2057454 -37.46689776 190.5475496 -37.36474609 196.390625 C-36.75718875 200.03596906 -35.77819442 201.21148627 -32.86083984 203.4140625 C-28.77731456 203.92450316 -26.41590196 203.32950545 -22.86083984 201.4140625 C-22.94846985 198.55853306 -23.05542992 195.70587261 -23.17333984 192.8515625 C-23.19589844 192.05169922 -23.21845703 191.25183594 -23.24169922 190.42773438 C-23.63605353 181.64438826 -26.80873844 174.84360678 -32.86083984 168.4140625 C-41.35279992 161.70759147 -49.03617234 160.3814108 -59.65136719 161.09716797 C-66.85002576 162.12963856 -73.44142171 166.49578878 -78.36083984 171.7265625 C-83.84151056 179.04516206 -86.93872341 186.54860278 -87.06616211 195.65136719 C-87.08610733 196.91237244 -87.10605255 198.17337769 -87.12660217 199.47259521 C-87.14358386 200.84370807 -87.16046276 202.2148222 -87.17724609 203.5859375 C-87.19782819 204.99270217 -87.21882499 206.39946083 -87.24021912 207.80621338 C-87.29531019 211.50180177 -87.34477639 215.19744476 -87.39306641 218.89312744 C-87.44337633 222.66708209 -87.49901277 226.44095782 -87.55419922 230.21484375 C-87.66162213 237.61451642 -87.76310203 245.0142549 -87.86083984 252.4140625 C-91.07714126 250.88802835 -93.14853283 249.31605479 -95.61083984 246.7265625 C-98.25897744 244.00989639 -100.93347661 241.4015186 -103.79833984 238.9140625 C-104.41217529 238.36008789 -105.02601074 237.80611328 -105.65844727 237.23535156 C-107.7899949 235.36367454 -107.7899949 235.36367454 -110.19335938 234.09790039 C-113.78908926 231.77914133 -116.36161869 229.5724428 -117.36026001 225.25482178 C-118.13512595 218.64550257 -117.92616153 211.99245598 -117.79833984 205.3515625 C-117.77041105 201.38150019 -117.76531243 197.41155725 -117.76318359 193.44140625 C-117.75787376 192.00232155 -117.75787376 192.00232155 -117.75245667 190.53416443 C-117.7649985 179.29189672 -119.27464333 168.37748805 -122.04833984 157.4765625 C-122.26119629 156.63810791 -122.47405273 155.79965332 -122.69335938 154.93579102 C-127.63325996 136.41028609 -137.21873253 121.60152314 -149.86083984 107.4140625 C-150.56080078 106.61742187 -151.26076172 105.82078125 -151.98193359 105 C-154.22963626 102.47661067 -154.22963626 102.47661067 -156.86083984 100.4140625 C-160.70042536 100.58715857 -162.73532973 102.86333132 -165.42333984 105.4140625 C-169.11584392 108.83304775 -172.85542283 112.14645233 -176.73583984 115.3515625 C-177.62013672 116.08246094 -178.50443359 116.81335938 -179.41552734 117.56640625 C-181.53437 119.1673848 -183.48275542 120.2753102 -185.86083984 121.4140625 C-186.03474243 120.46768921 -186.03474243 120.46768921 -186.2121582 119.50219727 C-186.73684465 116.65955569 -187.26751008 113.818063 -187.79833984 110.9765625 C-187.98074219 109.98333984 -188.16314453 108.99011719 -188.35107422 107.96679688 C-188.52832031 107.02255859 -188.70556641 106.07832031 -188.88818359 105.10546875 C-189.13169556 103.79364624 -189.13169556 103.79364624 -189.38012695 102.45532227 C-189.66772374 100.43178186 -189.66772374 100.43178186 -190.86083984 99.4140625 C-193.22509289 67.21456659 -187.96567434 30.96010565 -166.61474609 5.3984375 C-166.03595703 4.74359375 -165.45716797 4.08875 -164.86083984 3.4140625 C-164.18923828 2.63546875 -163.51763672 1.856875 -162.82568359 1.0546875 C-160.86610868 -1.18691969 -158.87362241 -3.3921338 -156.86083984 -5.5859375 C-156.09771484 -6.4315625 -155.33458984 -7.2771875 -154.54833984 -8.1484375 C-110.18183902 -48.38782197 -42.8349073 -36.50689555 0 0 Z " transform="translate(234.86083984375,93.5859375)" style="fill: #1856B7;"/><path d="M0 0 C0.44988281 0.42796875 0.89976562 0.8559375 1.36328125 1.296875 C1.36328125 1.956875 1.36328125 2.616875 1.36328125 3.296875 C2.02328125 3.296875 2.68328125 3.296875 3.36328125 3.296875 C14.0452256 14.85129604 17.57514096 28.84708807 17.50610352 44.18579102 C17.17300746 49.10934925 16.23620024 53.23521677 13.05078125 57.109375 C11.01460851 60.95547907 11.43717688 61.90472822 12.55078125 65.984375 C13.1291557 67.76379936 13.73029967 69.53613584 14.36328125 71.296875 C15.23437287 73.91014985 15.55207924 75.60398671 15.61328125 78.296875 C15.6390625 78.9775 15.66484375 79.658125 15.69140625 80.359375 C15.36328125 82.296875 15.36328125 82.296875 14.265625 84.00390625 C11.4723579 85.90241017 9.01677518 85.81897926 5.67578125 85.984375 C4.49628906 86.05011719 3.31679687 86.11585938 2.1015625 86.18359375 C1.19792969 86.22097656 0.29429687 86.25835937 -0.63671875 86.296875 C-0.92675781 87.32748047 -0.92675781 87.32748047 -1.22265625 88.37890625 C-1.48304688 89.27996094 -1.7434375 90.18101562 -2.01171875 91.109375 C-2.26695312 92.00269531 -2.5221875 92.89601563 -2.78515625 93.81640625 C-3.63671875 96.296875 -3.63671875 96.296875 -5.63671875 99.296875 C-6.29671875 99.296875 -6.95671875 99.296875 -7.63671875 99.296875 C-7.7346875 99.96074219 -7.83265625 100.62460938 -7.93359375 101.30859375 C-9.51221999 110.63065388 -9.51221999 110.63065388 -13.63671875 114.296875 C-19.33985396 117.1484426 -26.6224216 117.30164072 -32.63671875 115.296875 C-35.69732747 114.90232139 -38.58417102 114.80201754 -41.63671875 115.296875 C-44.00624922 117.42514995 -44.00624922 117.42514995 -45.63671875 120.296875 C-46.48234375 121.121875 -47.32796875 121.946875 -48.19921875 122.796875 C-50.71231965 125.17704892 -50.71231965 125.17704892 -52.26171875 128.046875 C-53.63671875 130.296875 -53.63671875 130.296875 -56.63671875 131.296875 C-58.85304312 127.81988906 -60.57773654 124.28444729 -62.23486328 120.52490234 C-68.3146877 106.87223334 -76.41494743 96.1264319 -86.81494141 85.44482422 C-90.22779208 81.92735025 -93.05515857 78.46806583 -95.63671875 74.296875 C-95.15460938 73.74 -94.6725 73.183125 -94.17578125 72.609375 C-93.54414062 71.84625 -92.9125 71.083125 -92.26171875 70.296875 C-91.63523437 69.554375 -91.00875 68.811875 -90.36328125 68.046875 C-85.05391623 59.59032981 -86.5029773 49.43410421 -86.75317383 39.85644531 C-87.13489445 24.05358782 -83.68912462 11.02423695 -72.63671875 -0.703125 C-50.42098393 -19.3878821 -22.27516419 -16.60593402 0 0 Z " transform="translate(181.63671875,107.703125)" style="fill: #FDFEFE;"/><path d="M0 0 C1.11696762 0.00222061 2.23393524 0.00444122 3.38475037 0.00672913 C4.64598221 0.00680466 5.90721405 0.00688019 7.20666504 0.00695801 C8.59341979 0.01206542 9.98017414 0.01728142 11.3669281 0.02259827 C12.77797394 0.0244625 14.18902042 0.02588638 15.60006714 0.02688599 C19.3204272 0.03071072 23.04074845 0.04054062 26.76109314 0.05158997 C30.55482966 0.06180504 34.34857243 0.06638381 38.14231873 0.07142639 C45.59090416 0.08216294 53.03945758 0.09923882 60.48802185 0.12025452 C60.58091833 8.47424973 60.65188567 16.82802723 60.69527054 25.18241215 C60.71609875 29.06218848 60.74432792 32.94161005 60.78977966 36.82118225 C60.83340944 40.56891783 60.85719478 44.31631332 60.86753082 48.06428337 C60.87489167 49.49037971 60.88926571 50.91645854 60.91094208 52.34240913 C61.10931851 65.93960805 61.10931851 65.93960805 56.48802185 72.12025452 C55.60243591 73.8875592 55.60243591 73.8875592 54.69895935 75.69056702 C50.67887996 83.61486706 47.14107638 88.17453382 38.48802185 91.12025452 C36.82056151 91.82671747 35.15388851 92.53504177 33.48802185 93.24525452 C30.12769761 94.57461356 26.7955469 95.58580776 23.30052185 96.49525452 C17.730701 98.10041549 13.5215613 101.01174641 10.3278656 105.89369202 C8.16080609 111.63891956 8.32636476 119.2424211 10.6091156 124.89759827 C11.93461317 127.2258524 11.93461317 127.2258524 13.39427185 129.25306702 C14.48802185 131.12025452 14.48802185 131.12025452 14.48802185 135.12025452 C6.16073238 135.14338136 -2.16654378 135.16117134 -10.49385738 135.17206669 C-14.36017932 135.17729477 -18.22647936 135.18439106 -22.0927887 135.19569397 C-25.82101216 135.20652552 -29.54921449 135.21253192 -33.27745247 135.21513176 C-34.70287471 135.21698553 -36.12829574 135.22060522 -37.55370903 135.22598457 C-39.54361223 135.23319845 -41.53353649 135.2336626 -43.52345276 135.23377991 C-44.65818527 135.23600052 -45.79291779 135.23822113 -46.96203613 135.24050903 C-49.51197815 135.12025452 -49.51197815 135.12025452 -50.51197815 134.12025452 C-50.60726035 131.13727238 -50.6374999 128.17749107 -50.62550354 125.19422913 C-50.62564957 124.25774033 -50.62579559 123.32125153 -50.62594604 122.35638428 C-50.62524652 119.24509912 -50.6174523 116.13387303 -50.6096344 113.02259827 C-50.60777036 110.87168409 -50.60634639 108.72076949 -50.60534668 106.56985474 C-50.60152039 100.89643694 -50.59168917 95.22304456 -50.5806427 89.54963684 C-50.56863693 82.74902115 -50.56402687 75.94839699 -50.55818939 69.14777374 C-50.54847747 58.80524963 -50.52932168 48.46278134 -50.51197815 38.12025452 C-35.00197815 38.12025452 -19.49197815 38.12025452 -3.51197815 38.12025452 C-3.55158098 25.98851854 -3.55158098 25.98851854 -3.60206604 13.85682678 C-3.60498522 12.34177216 -3.60753377 10.82671675 -3.6096344 9.31166077 C-3.61475037 8.51788025 -3.61986633 7.72409973 -3.62513733 6.90626526 C-3.62544771 4.97722622 -3.57433708 3.04828539 -3.51197815 1.12025452 C-2.51197815 0.12025452 -2.51197815 0.12025452 0 0 Z " transform="translate(284.51197814941406,113.87974548339844)" style="fill: #FBFCFD;"/><path d="M0 0 C1.37478516 0.01740234 1.37478516 0.01740234 2.77734375 0.03515625 C3.69644531 0.04417969 4.61554688 0.05320313 5.5625 0.0625 C6.27277344 0.07410156 6.98304688 0.08570313 7.71484375 0.09765625 C7.7416947 2.57689426 7.76160922 5.05584465 7.77734375 7.53515625 C7.78572266 8.24220703 7.79410156 8.94925781 7.80273438 9.67773438 C7.81137963 11.48459184 7.76704386 13.29153228 7.71484375 15.09765625 C6.71484375 16.09765625 6.71484375 16.09765625 4.68359375 16.23046875 C3.86890625 16.22789062 3.05421875 16.2253125 2.21484375 16.22265625 C1.40015625 16.22523438 0.58546875 16.2278125 -0.25390625 16.23046875 C-2.28515625 16.09765625 -2.28515625 16.09765625 -3.28515625 15.09765625 C-3.38424927 12.7660557 -3.41486129 10.43135683 -3.41015625 8.09765625 C-3.41273438 6.81890625 -3.4153125 5.54015625 -3.41796875 4.22265625 C-3.24439846 0.13864951 -3.24439846 0.13864951 0 0 Z " transform="translate(251.28515625,199.90234375)" style="fill: #2168CB;"/><path d="M0 0 C3.46679688 0.04882812 3.46679688 0.04882812 6.93359375 0.09765625 C6.93359375 5.70765625 6.93359375 11.31765625 6.93359375 17.09765625 C3.63359375 17.09765625 0.33359375 17.09765625 -3.06640625 17.09765625 C-3.09325304 14.45175611 -3.11316982 11.80612529 -3.12890625 9.16015625 C-3.13728516 8.40541016 -3.14566406 7.65066406 -3.15429688 6.87304688 C-3.16293066 4.94771312 -3.11864958 3.02230044 -3.06640625 1.09765625 C-2.06640625 0.09765625 -2.06640625 0.09765625 0 0 Z " transform="translate(299.06640625,161.90234375)" style="fill: #3266BE;"/><path d="M0 0 C3.3 0 6.6 0 10 0 C10 5.28 10 10.56 10 16 C6.7 16 3.4 16 0 16 C0 10.72 0 5.44 0 0 Z " transform="translate(271,200)" style="fill: #155AC4;"/><path d="M0 0 C3.3 0 6.6 0 10 0 C10 5.28 10 10.56 10 16 C6.7 16 3.4 16 0 16 C0 10.72 0 5.44 0 0 Z " transform="translate(271,170)" style="fill: #175EC8;"/><path d="M0 0 C3.3 0 6.6 0 10 0 C10 5.28 10 10.56 10 16 C6.7 16 3.4 16 0 16 C0 10.72 0 5.44 0 0 Z " transform="translate(320,162)" style="fill: #144BB2;"/><path d="M0 0 C3.3 0 6.6 0 10 0 C10 5.28 10 10.56 10 16 C6.7 16 3.4 16 0 16 C0 10.72 0 5.44 0 0 Z " transform="translate(320,131)" style="fill: #1C4FB3;"/><path d="M0 0 C3.3 0 6.6 0 10 0 C10 5.28 10 10.56 10 16 C6.7 16 3.4 16 0 16 C0 10.72 0 5.44 0 0 Z " transform="translate(296,131)" style="fill: #164BB1;"/><path d="M0 0 C6.93359375 -0.09765625 6.93359375 -0.09765625 9 0 C10 1 10 1 10.1328125 4.125 C10.13023437 5.40375 10.12765625 6.6825 10.125 8 C10.12757813 9.27875 10.13015625 10.5575 10.1328125 11.875 C10 15 10 15 9 16 C5.99668982 16.14193337 3.00782866 16.04236378 0 16 C0 10.72 0 5.44 0 0 Z " transform="translate(249,170)" style="fill: #1D68CB;"/><path d="M0 0 C0.33 0 0.66 0 1 0 C1 20.79 1 41.58 1 63 C-0.32 62.34 -1.64 61.68 -3 61 C-2.67 60.34 -2.34 59.68 -2 59 C-1.88645498 57.40888295 -1.83332031 55.81326244 -1.81054688 54.21826172 C-1.79382935 53.22317596 -1.77711182 52.22809021 -1.7598877 51.20285034 C-1.74631226 50.1227066 -1.73273682 49.04256287 -1.71875 47.9296875 C-1.70034058 46.81949249 -1.68193115 45.70929749 -1.66296387 44.56546021 C-1.60408225 41.00202858 -1.55137423 37.43854728 -1.5 33.875 C-1.43207964 29.20563407 -1.3582775 24.53641098 -1.28125 19.8671875 C-1.26767456 18.79918915 -1.25409912 17.7311908 -1.2401123 16.63082886 C-1.14738917 11.00672372 -0.824031 5.5655454 0 0 Z " transform="translate(146,283)" style="fill: #204CB3;"/><path d="M0 0 C3 -0.3125 3 -0.3125 6 0 C8 2 8 2 8.25 5 C8 8 8 8 6 10 C2.375 9.625 2.375 9.625 -1 9 C-1.625 6.1875 -1.625 6.1875 -2 3 C-1.34 2.01 -0.68 1.02 0 0 Z " transform="translate(285,315)" style="fill: #1F58C8;"/><path d="M0 0 C0.33 0 0.66 0 1 0 C2.17130787 4.59914809 2.09495322 8.98920483 2.02734375 13.6953125 C2.0147056 15.39713344 2.00234405 17.09895646 1.99023438 18.80078125 C1.96535419 21.47158324 1.93728502 24.14227666 1.90405273 26.81298828 C1.87390822 29.39877019 1.85610144 31.98441133 1.83984375 34.5703125 C1.82638412 35.37034698 1.8129245 36.17038147 1.79905701 36.99465942 C1.7814628 40.87110157 1.79762088 42.69643132 4 46 C1 46 1 46 0 45 C-0.0928726 43.58774954 -0.11746772 42.17091066 -0.11352539 40.75561523 C-0.11344986 39.85475693 -0.11337433 38.95389862 -0.11329651 38.02574158 C-0.10813522 37.04658279 -0.10297394 36.06742401 -0.09765625 35.05859375 C-0.0962413 34.06118668 -0.09482635 33.0637796 -0.09336853 32.03614807 C-0.08775114 28.83656876 -0.07519571 25.63705831 -0.0625 22.4375 C-0.05748724 20.27408955 -0.05292395 18.11067801 -0.04882812 15.94726562 C-0.03777607 10.63148675 -0.02102104 5.31574829 0 0 Z " transform="translate(118,276)" style="fill: #3761BB;"/><path d="M0 0 C2.97 0 5.94 0 9 0 C9.02685095 2.47923801 9.04676547 4.9581884 9.0625 7.4375 C9.07087891 8.14455078 9.07925781 8.85160156 9.08789062 9.58007812 C9.09653588 11.38693559 9.05220011 13.19387603 9 15 C8 16 8 16 5.93359375 16.09765625 C5.10988281 16.08605469 4.28617188 16.07445312 3.4375 16.0625 C2.61121094 16.05347656 1.78492188 16.04445312 0.93359375 16.03515625 C-0.02353516 16.01775391 -0.02353516 16.01775391 -1 16 C-1.33 14.68 -1.66 13.36 -2 12 C-1.67 12.66 -1.34 13.32 -1 14 C1.64 14 4.28 14 7 14 C7 9.71 7 5.42 7 1 C4.69 1 2.38 1 0 1 C0 0.67 0 0.34 0 0 Z " transform="translate(250,200)" style="fill: #214DBE;"/><path d="M0 0 C2.97 0 5.94 0 9 0 C9 5.28 9 10.56 9 16 C6.03 16 3.06 16 0 16 C0.33 15.34 0.66 14.68 1 14 C2.98 14 4.96 14 7 14 C7 9.71 7 5.42 7 1 C4.69 1 2.38 1 0 1 C0 0.67 0 0.34 0 0 Z " transform="translate(297,162)" style="fill: #2349AD;"/><path d="M0 0 C0.66 0 1.32 0 2 0 C2.02685412 2.31243792 2.04632841 4.6249627 2.0625 6.9375 C2.07410156 8.22527344 2.08570313 9.51304687 2.09765625 10.83984375 C2 14 2 14 1 15 C-0.51928038 15.07179964 -2.04167482 15.08392007 -3.5625 15.0625 C-4.38878906 15.05347656 -5.21507812 15.04445312 -6.06640625 15.03515625 C-6.70449219 15.02355469 -7.34257812 15.01195312 -8 15 C-8 14.34 -8 13.68 -8 13 C-5.36 13 -2.72 13 0 13 C0 8.71 0 4.42 0 0 Z " transform="translate(257,171)" style="fill: #1E57C7;"/><path d="M0 0 C2.97 0.33 5.94 0.66 9 1 C9 2.65 9 4.3 9 6 C8.67 4.68 8.34 3.36 8 2 C6.02 2 4.04 2 2 2 C2.02320313 2.75925781 2.04640625 3.51851562 2.0703125 4.30078125 C2.08835937 5.29464844 2.10640625 6.28851563 2.125 7.3125 C2.14820313 8.29863281 2.17140625 9.28476563 2.1953125 10.30078125 C2 13 2 13 0 16 C0 10.72 0 5.44 0 0 Z " transform="translate(296,131)" style="fill: #517BC5;"/><path d="M0 0 C3.3 0 6.6 0 10 0 C10 0.33 10 0.66 10 1 C7.69 1.33 5.38 1.66 3 2 C2.67 4.64 2.34 7.28 2 10 C0 8 0 8 -0.1953125 6.0546875 C-0.09765625 3.02734375 -0.09765625 3.02734375 0 0 Z " transform="translate(320,162)" style="fill: #4365BC;"/><path d="M0 0 C0.33 0 0.66 0 1 0 C1.04898438 1.04800781 1.09796875 2.09601563 1.1484375 3.17578125 C1.22348143 4.55471354 1.29902857 5.9336185 1.375 7.3125 C1.4059375 8.00279297 1.436875 8.69308594 1.46875 9.40429688 C1.68124919 13.06990789 1.91933861 14.87900792 4 18 C1 18 1 18 0 17 C-0.07325168 14.13732433 -0.09238205 11.299281 -0.0625 8.4375 C-0.05798828 7.63119141 -0.05347656 6.82488281 -0.04882812 5.99414062 C-0.03700518 3.99606244 -0.01906914 1.99802217 0 0 Z " transform="translate(118,304)" style="fill: #385EB9;"/><path d="M0 0 C0.66 0.33 1.32 0.66 2 1 C0.88200014 2.33920838 -0.24461897 3.67122556 -1.375 5 C-2.00148437 5.7425 -2.62796875 6.485 -3.2734375 7.25 C-4.12808594 8.11625 -4.12808594 8.11625 -5 9 C-5.66 9 -6.32 9 -7 9 C-5.76465298 5.29395893 -3.80264776 3.66251537 -1 1 C-0.67 0.67 -0.34 0.34 0 0 Z " transform="translate(140,222)" style="fill: #3F71C3;"/><path d="M0 0 C0 0.66 0 1.32 0 2 C-3.47325181 3.1577506 -6.36067448 3.06866652 -10 3 C-6.26223701 0.50815801 -4.5227786 0 0 0 Z " transform="translate(348,63)" style="fill: #476FC3;"/></svg>