<?xml version="1.0" standalone="no"?>
<!DOCTYPE svg PUBLIC "-//W3C//DTD SVG 20010904//EN"
 "http://www.w3.org/TR/2001/REC-SVG-20010904/DTD/svg10.dtd">
<svg version="1.0" xmlns="http://www.w3.org/2000/svg"
 width="797.000000pt" height="777.000000pt" viewBox="0 0 797.000000 777.000000"
 preserveAspectRatio="xMidYMid meet">

<g transform="translate(0.000000,777.000000) scale(0.100000,-0.100000)"
fill="#000000" stroke="none">
<path d="M3829 6886 c-3 -4 -54 -12 -113 -20 -59 -8 -110 -16 -112 -19 -3 -2
55 -7 128 -11 346 -19 630 -69 891 -156 422 -143 760 -352 1077 -670 270 -270
451 -544 601 -909 21 -52 42 -111 45 -130 4 -20 10 -40 14 -46 4 -5 11 -26 15
-45 4 -19 11 -48 15 -65 5 -16 16 -66 25 -110 9 -44 21 -96 26 -116 11 -44 33
-342 33 -449 -1 -97 -22 -401 -31 -420 -3 -8 -10 -37 -14 -65 -12 -73 -33
-168 -40 -180 -4 -5 -10 -30 -14 -55 -4 -25 -11 -49 -15 -55 -4 -5 -10 -26
-14 -46 -3 -20 -15 -54 -26 -77 -29 -59 -25 -75 20 -107 22 -16 61 -59 86 -96
44 -67 134 -251 134 -276 0 -30 19 -9 45 50 111 249 161 380 204 534 36 128
74 306 90 419 29 206 30 573 1 774 -65 458 -275 938 -569 1305 -139 174 -355
380 -541 517 -142 104 -409 253 -551 308 -30 11 -63 25 -74 30 -29 14 -204 72
-245 81 -19 4 -62 15 -95 24 -58 16 -121 28 -325 62 -95 15 -659 31 -671 19z"/>
<path d="M1701 6072 c1 -192 26 -397 63 -507 14 -44 26 -83 26 -87 0 -19 83
-181 122 -235 63 -90 276 -253 483 -369 84 -48 206 -107 460 -224 258 -120
383 -182 492 -246 51 -30 100 -54 110 -54 48 0 102 80 103 150 0 115 -150 271
-370 384 -107 55 -125 75 -125 137 0 43 4 54 27 74 62 54 390 43 642 -21 290
-73 576 -240 851 -497 278 -261 361 -317 466 -317 76 0 159 66 159 125 -1 40
-40 105 -107 177 -37 41 -97 109 -133 153 -304 367 -445 506 -686 677 -155
109 -433 237 -614 283 -36 9 -87 23 -114 31 -26 8 -56 14 -65 14 -14 0 -45 6
-202 41 -73 16 -190 34 -494 74 -237 31 -347 51 -490 90 -33 9 -78 20 -100 26
-22 5 -49 13 -60 18 -11 5 -60 23 -110 41 -115 42 -162 62 -257 110 l-78 39 1
-87z"/>
<path d="M1641 5492 c-11 -17 -21 -34 -21 -40 0 -5 -12 -27 -28 -48 -15 -21
-36 -57 -47 -79 -11 -22 -23 -41 -27 -43 -5 -2 -8 -8 -8 -13 0 -6 -9 -31 -21
-57 -11 -26 -24 -56 -29 -67 -4 -11 -15 -36 -24 -57 -9 -20 -16 -43 -16 -52 0
-9 -4 -16 -9 -16 -5 0 -12 -19 -16 -42 -4 -24 -11 -47 -15 -53 -4 -5 -11 -29
-15 -52 -4 -24 -10 -45 -15 -48 -5 -3 -12 -34 -15 -70 -4 -36 -11 -68 -16 -71
-5 -3 -9 -22 -9 -43 0 -20 -4 -41 -9 -46 -30 -31 -52 -553 -31 -730 7 -55 16
-122 22 -150 5 -27 12 -66 15 -85 3 -19 9 -39 13 -45 4 -5 10 -34 14 -63 4
-29 11 -63 16 -75 5 -12 18 -56 30 -97 37 -131 116 -325 188 -460 150 -284
304 -493 537 -726 543 -544 1236 -853 1975 -881 233 -8 540 26 695 77 l60 20
-95 -7 c-179 -14 -463 0 -544 27 -17 6 -67 15 -111 20 -106 12 -196 29 -217
40 -10 6 -24 10 -32 10 -19 0 -167 50 -310 104 -75 29 -302 138 -381 184 -292
168 -629 453 -819 692 -306 386 -495 815 -568 1290 -18 118 -22 188 -22 375 0
206 3 245 27 375 30 163 76 314 137 445 l40 89 -29 27 c-61 55 -150 217 -203
368 -16 47 -33 90 -38 94 -4 5 -17 -5 -29 -21z"/>
<path d="M3885 4908 c-7 -17 9 -127 29 -208 9 -36 19 -76 22 -90 9 -38 34
-122 44 -145 5 -11 16 -37 24 -57 19 -47 67 -78 123 -78 34 0 46 5 59 25 15
23 15 33 -1 141 -19 136 -62 314 -78 330 -11 11 -199 94 -212 94 -3 0 -8 -6
-10 -12z"/>
<path d="M4212 4731 c-37 -23 36 -324 124 -511 61 -128 112 -171 206 -172 59
0 94 21 120 73 22 42 23 109 3 223 -17 94 -15 92 -155 209 -68 57 -259 187
-274 187 -6 0 -17 -4 -24 -9z"/>
<path d="M3547 4219 c-31 -18 -51 -83 -50 -164 1 -45 8 -78 43 -200 16 -55 73
-126 199 -248 92 -89 226 -197 244 -197 3 0 -3 26 -14 58 -26 73 -132 442
-158 550 -22 90 -68 170 -112 196 -31 18 -124 21 -152 5z"/>
<path d="M3928 4003 c-33 -40 -39 -72 -27 -137 19 -102 57 -232 100 -339 65
-162 72 -171 151 -207 88 -39 218 -83 226 -76 3 3 -7 55 -21 116 -42 178 -182
484 -264 580 -31 35 -106 80 -136 80 -8 0 -20 -8 -29 -17z"/>
<path d="M3152 4000 c-44 -10 -66 -32 -87 -86 -16 -43 -16 -48 0 -101 37 -118
357 -548 545 -732 162 -159 383 -312 614 -426 174 -85 318 -135 496 -169 125
-25 157 -30 565 -86 535 -74 916 -178 1219 -333 55 -28 104 -53 107 -55 16 -8
-22 298 -58 458 -46 206 -123 375 -246 535 -87 114 -322 291 -492 370 -44 20
-88 41 -97 46 -10 5 -23 9 -29 9 -6 0 -25 6 -42 14 -18 7 -61 24 -97 36 -36
12 -74 26 -85 30 -11 5 -60 25 -110 45 -127 51 -236 106 -415 208 -186 106
-200 107 -255 22 -68 -105 44 -330 223 -448 37 -24 92 -58 122 -74 89 -48 99
-56 116 -92 13 -28 14 -37 3 -57 -25 -48 -60 -56 -236 -56 -96 0 -170 5 -182
11 -11 6 -37 11 -58 11 -21 0 -56 5 -78 11 -22 6 -67 16 -100 24 -176 40 -214
53 -350 122 -270 136 -463 294 -628 513 -148 197 -262 275 -365 250z"/>
</g>
</svg>
